<svg preserveAspectRatio="none" overflow="visible" style="display: block;" width="221.5" height="2" viewBox="0 0 221.5 2" fill="none" xmlns="http://www.w3.org/2000/svg">
<g id="Frame 14173">
<line id="Line 61" x1="0.75" y1="0.75" x2="0.75" y2="1.25" stroke="#5C5555" stroke-width="1.5" stroke-linecap="round"/>
<line id="Line 62" x1="4.75" y1="0.75" x2="4.75" y2="1.25" stroke="#5C5555" stroke-width="1.5" stroke-linecap="round"/>
<line id="Line 63" x1="8.75" y1="0.75" x2="8.75" y2="1.25" stroke="#5C5555" stroke-width="1.5" stroke-linecap="round"/>
<line id="Line 64" x1="12.75" y1="0.75" x2="12.75" y2="1.25" stroke="#5C5555" stroke-width="1.5" stroke-linecap="round"/>
<line id="Line 65" x1="16.75" y1="0.75" x2="16.75" y2="1.25" stroke="#5C5555" stroke-width="1.5" stroke-linecap="round"/>
<line id="Line 66" x1="20.75" y1="0.75" x2="20.75" y2="1.25" stroke="#5C5555" stroke-width="1.5" stroke-linecap="round"/>
<line id="Line 67" x1="24.75" y1="0.75" x2="24.75" y2="1.25" stroke="#5C5555" stroke-width="1.5" stroke-linecap="round"/>
<line id="Line 68" x1="28.75" y1="0.75" x2="28.75" y2="1.25" stroke="#5C5555" stroke-width="1.5" stroke-linecap="round"/>
<line id="Line 69" x1="32.75" y1="0.75" x2="32.75" y2="1.25" stroke="#5C5555" stroke-width="1.5" stroke-linecap="round"/>
<line id="Line 70" x1="36.75" y1="0.75" x2="36.75" y2="1.25" stroke="#5C5555" stroke-width="1.5" stroke-linecap="round"/>
<line id="Line 71" x1="40.75" y1="0.75" x2="40.75" y2="1.25" stroke="#5C5555" stroke-width="1.5" stroke-linecap="round"/>
<line id="Line 72" x1="44.75" y1="0.75" x2="44.75" y2="1.25" stroke="#5C5555" stroke-width="1.5" stroke-linecap="round"/>
<line id="Line 73" x1="48.75" y1="0.75" x2="48.75" y2="1.25" stroke="#5C5555" stroke-width="1.5" stroke-linecap="round"/>
<line id="Line 74" x1="52.75" y1="0.75" x2="52.75" y2="1.25" stroke="#5C5555" stroke-width="1.5" stroke-linecap="round"/>
<line id="Line 75" x1="56.75" y1="0.75" x2="56.75" y2="1.25" stroke="#5C5555" stroke-width="1.5" stroke-linecap="round"/>
<line id="Line 76" x1="60.75" y1="0.75" x2="60.75" y2="1.25" stroke="#5C5555" stroke-width="1.5" stroke-linecap="round"/>
<line id="Line 77" x1="64.75" y1="0.75" x2="64.75" y2="1.25" stroke="#5C5555" stroke-width="1.5" stroke-linecap="round"/>
<line id="Line 78" x1="68.75" y1="0.75" x2="68.75" y2="1.25" stroke="#5C5555" stroke-width="1.5" stroke-linecap="round"/>
<line id="Line 79" x1="72.75" y1="0.75" x2="72.75" y2="1.25" stroke="#5C5555" stroke-width="1.5" stroke-linecap="round"/>
<line id="Line 80" x1="76.75" y1="0.75" x2="76.75" y2="1.25" stroke="#5C5555" stroke-width="1.5" stroke-linecap="round"/>
<line id="Line 81" x1="80.75" y1="0.75" x2="80.75" y2="1.25" stroke="#5C5555" stroke-width="1.5" stroke-linecap="round"/>
<line id="Line 82" x1="84.75" y1="0.75" x2="84.75" y2="1.25" stroke="#5C5555" stroke-width="1.5" stroke-linecap="round"/>
<line id="Line 83" x1="88.75" y1="0.75" x2="88.75" y2="1.25" stroke="#5C5555" stroke-width="1.5" stroke-linecap="round"/>
<line id="Line 84" x1="92.75" y1="0.75" x2="92.75" y2="1.25" stroke="#5C5555" stroke-width="1.5" stroke-linecap="round"/>
<line id="Line 85" x1="96.75" y1="0.75" x2="96.75" y2="1.25" stroke="#5C5555" stroke-width="1.5" stroke-linecap="round"/>
<line id="Line 86" x1="100.75" y1="0.75" x2="100.75" y2="1.25" stroke="#5C5555" stroke-width="1.5" stroke-linecap="round"/>
<line id="Line 87" x1="104.75" y1="0.75" x2="104.75" y2="1.25" stroke="#5C5555" stroke-width="1.5" stroke-linecap="round"/>
<line id="Line 88" x1="108.75" y1="0.75" x2="108.75" y2="1.25" stroke="#5C5555" stroke-width="1.5" stroke-linecap="round"/>
<line id="Line 89" x1="112.75" y1="0.75" x2="112.75" y2="1.25" stroke="#5C5555" stroke-width="1.5" stroke-linecap="round"/>
<line id="Line 90" x1="116.75" y1="0.75" x2="116.75" y2="1.25" stroke="#5C5555" stroke-width="1.5" stroke-linecap="round"/>
<line id="Line 91" x1="120.75" y1="0.75" x2="120.75" y2="1.25" stroke="#5C5555" stroke-width="1.5" stroke-linecap="round"/>
<line id="Line 92" x1="124.75" y1="0.75" x2="124.75" y2="1.25" stroke="#5C5555" stroke-width="1.5" stroke-linecap="round"/>
<line id="Line 93" x1="128.75" y1="0.75" x2="128.75" y2="1.25" stroke="#5C5555" stroke-width="1.5" stroke-linecap="round"/>
<line id="Line 94" x1="132.75" y1="0.75" x2="132.75" y2="1.25" stroke="#5C5555" stroke-width="1.5" stroke-linecap="round"/>
<line id="Line 95" x1="136.75" y1="0.75" x2="136.75" y2="1.25" stroke="#5C5555" stroke-width="1.5" stroke-linecap="round"/>
<line id="Line 96" x1="140.75" y1="0.75" x2="140.75" y2="1.25" stroke="#5C5555" stroke-width="1.5" stroke-linecap="round"/>
<line id="Line 97" x1="144.75" y1="0.75" x2="144.75" y2="1.25" stroke="#5C5555" stroke-width="1.5" stroke-linecap="round"/>
<line id="Line 98" x1="148.75" y1="0.75" x2="148.75" y2="1.25" stroke="#5C5555" stroke-width="1.5" stroke-linecap="round"/>
<line id="Line 99" x1="152.75" y1="0.75" x2="152.75" y2="1.25" stroke="#5C5555" stroke-width="1.5" stroke-linecap="round"/>
<line id="Line 100" x1="156.75" y1="0.75" x2="156.75" y2="1.25" stroke="#5C5555" stroke-width="1.5" stroke-linecap="round"/>
<line id="Line 101" x1="160.75" y1="0.75" x2="160.75" y2="1.25" stroke="#5C5555" stroke-width="1.5" stroke-linecap="round"/>
<line id="Line 102" x1="164.75" y1="0.75" x2="164.75" y2="1.25" stroke="#5C5555" stroke-width="1.5" stroke-linecap="round"/>
<line id="Line 103" x1="168.75" y1="0.75" x2="168.75" y2="1.25" stroke="#5C5555" stroke-width="1.5" stroke-linecap="round"/>
<line id="Line 104" x1="172.75" y1="0.75" x2="172.75" y2="1.25" stroke="#5C5555" stroke-width="1.5" stroke-linecap="round"/>
<line id="Line 105" x1="176.75" y1="0.75" x2="176.75" y2="1.25" stroke="#5C5555" stroke-width="1.5" stroke-linecap="round"/>
<line id="Line 106" x1="180.75" y1="0.75" x2="180.75" y2="1.25" stroke="#5C5555" stroke-width="1.5" stroke-linecap="round"/>
<line id="Line 107" x1="184.75" y1="0.75" x2="184.75" y2="1.25" stroke="#5C5555" stroke-width="1.5" stroke-linecap="round"/>
<line id="Line 108" x1="188.75" y1="0.75" x2="188.75" y2="1.25" stroke="#5C5555" stroke-width="1.5" stroke-linecap="round"/>
<line id="Line 109" x1="192.75" y1="0.75" x2="192.75" y2="1.25" stroke="#5C5555" stroke-width="1.5" stroke-linecap="round"/>
<line id="Line 110" x1="196.75" y1="0.75" x2="196.75" y2="1.25" stroke="#5C5555" stroke-width="1.5" stroke-linecap="round"/>
<line id="Line 111" x1="200.75" y1="0.75" x2="200.75" y2="1.25" stroke="#5C5555" stroke-width="1.5" stroke-linecap="round"/>
<line id="Line 112" x1="204.75" y1="0.75" x2="204.75" y2="1.25" stroke="#5C5555" stroke-width="1.5" stroke-linecap="round"/>
<line id="Line 113" x1="208.75" y1="0.75" x2="208.75" y2="1.25" stroke="#5C5555" stroke-width="1.5" stroke-linecap="round"/>
<line id="Line 114" x1="212.75" y1="0.75" x2="212.75" y2="1.25" stroke="#5C5555" stroke-width="1.5" stroke-linecap="round"/>
<line id="Line 115" x1="216.75" y1="0.75" x2="216.75" y2="1.25" stroke="#5C5555" stroke-width="1.5" stroke-linecap="round"/>
<line id="Line 116" x1="220.75" y1="0.75" x2="220.75" y2="1.25" stroke="#5C5555" stroke-width="1.5" stroke-linecap="round"/>
</g>
</svg>
